<svg aria-hidden="true" style="position: absolute; width: 0; height: 0; overflow: hidden;" version="1.1" xmlns="http://www.w3.org/2000/svg" xmlns:xlink="http://www.w3.org/1999/xlink">
<defs>
<symbol id="icon-copyrights" viewBox="0 0 27 32">
<path fill="#ff6b09" style="fill: var(--color1, #ff6b09)" d="M-0.105 31.695c3.514 0 23.845 0 27.355 0 0.135-3.116-0.088-8.286-2.006-10.747l-0.069-0.088-4.191-2.102c0.091-0.307 0.136-0.587 0.154-0.794 0.021-0.248-0.013-0.481-0.102-0.691-0.691-1.653-2.155-2.522-2.959-2.893 0.245-0.494 0.403-1.023 0.48-1.565 0.456-0.128 0.822-0.489 0.942-0.97l0.489-1.985c0.087-0.35 0.032-0.713-0.154-1.022-0.080-0.133-0.184-0.245-0.3-0.341 1.379-3.13-0.931-6.080-1.057-6.236-2.502-2.702-5.662-2.197-5.83-2.167-4.561 0.954-6.321 4.446-5.328 8.541-0.294 0.326-0.418 0.78-0.309 1.225l0.492 1.987c0.119 0.478 0.483 0.837 0.935 0.967 0.14 0.992 0.56 1.888 1.177 2.611v1.574c-6.545 3.348-2.398 1.212-7.643 3.863-0.010 0.049-2.461 2.651-2.097 10.363l0.022 0.471zM26.299 30.706h-4.502v-1.889l2.978-6.809c1.492 2.473 1.547 7.195 1.524 8.698zM20.155 17.88c-0.174 1.994-1.268 1.391-1.944 2.927-0.531-0.584-0.691-1.284-0.548-2.033 0.258-1.376-0.583-1.784-0.375-3.23l0.032-0.033v-0.005c0.018-0.020 0.184-0.217 0.232-0.279 1.781 0.776 2.639 2.218 2.604 2.653zM10.599 16.313c0.827 0.573 1.825 0.911 2.899 0.911 1.011 0 1.971-0.294 2.795-0.835 0.114 1.136 0.559 1.364 0.401 2.2-0.030 0.155-0.046 0.308-0.055 0.459l-3.066 3.452-3.919-4.414 0.946-0.493v-1.28zM9.367 12.089v-1.914c0-0.705 0-3.501 0-3.363 0.477-0.881 1.128-1.521 1.936-1.904 2.165 1.224 4.657 3.050 6.329 4.888-0.002 2.341 0.007 2.347-0.009 2.539l-0.001 0.012c-0.13 2.125-1.88 3.887-4.124 3.887-2.181 0-3.992-1.711-4.123-3.908-0.007-0.079-0.008-0.158-0.008-0.238zM8.756 18.563l4.816 5.424 3.234-3.64c0.074 0.213 0.178 0.413 0.296 0.607l-3.53 4.409-5.264-6.576 0.447-0.224zM18.618 11.293v-1.528c0.043-0.050 0.411-0.471 0.368-0.421 0.020 0.774 0.104-0.139-0.368 1.949zM12.829 1.066c0.196 0.012 2.824-0.399 4.901 1.841 0.082 0.103 1.773 2.279 1.093 4.659-0.233-1.059-0.638-2.417-1.278-3.065l-0.7 0.697c0.632 0.64 1.048 2.588 1.206 3.598-2.901-3.032-6.643-4.951-6.694-4.984-0.188 0.117-1.771 0.417-2.921 2.65l-0.055 0.107v1.64c-0.049 0.001-0.194 0.002-0.145 0.002-0.731-3.524 0.669-6.323 4.593-7.145zM8.132 9.228l0.249 1.007v1.059l-0.414-1.672c-0.061-0.249 0.124-0.344 0.165-0.393zM7.407 19.24l6.166 7.703 4.172-5.212c0.454 0.406 0.672 0.463 1.634 0.957l-0.325-1.1c-0.082-0.279 0.244-0.727 0.441-0.933 0.44-0.238 0.806-0.578 1.080-0.997l3.404 1.707-3.167 7.243v2.096h-14.477v-2.097l-3.169-7.242 4.242-2.127zM2.37 22.010l2.978 6.807v1.889h-4.502c-0.023-1.502 0.033-6.222 1.524-8.696z"></path>
</symbol>
<symbol id="icon-fire" viewBox="0 0 26 32">
<path fill="#ff6b09" style="fill: var(--color1, #ff6b09)" d="M22.641 16.080c-0.275-0.615-0.654-1.222-1.208-1.922-1.398-1.757-1.824-5.676-1.829-5.714-0.019-0.188-0.152-0.343-0.327-0.399-0.18-0.056-0.374-0.005-0.502 0.136-1.668 1.865-0.967 4.746-0.588 5.897 0.104 0.315 0.218 0.686 0.298 1.062 0.616 3.040-0.573 4.417-0.853 4.694-0.27 0.075-0.455 0.038-0.625-0.146-0.587-0.644-0.782-2.753-0.507-5.502 0.057-0.559 0.043-1.062-0.038-1.532-0.58-3.379-2.704-5.546-3.245-6.306-1.488-2.199-1.639-5.859-1.644-5.892-0.005-0.174-0.104-0.329-0.261-0.404-0.152-0.075-0.336-0.066-0.479 0.033-2.483 1.687-2.269 5.751-1.924 8.021 0.081 0.526 0.237 1.062 0.507 1.739 0.962 2.42-0.19 5.544-0.199 5.573s-0.019 0.052-0.024 0.080c-0.147 0.771-0.393 1.231-0.668 1.231-0.028 0-0.057-0.005-0.090-0.014-0.336-0.070-0.512-0.428-0.516-0.738-0.019-4.008-4.041-5.357-4.084-5.371-0.18-0.056-0.379-0.005-0.502 0.141-0.128 0.146-0.152 0.348-0.066 0.517 0.047 0.099 0.199 0.531 0.095 2.058-0.090 1.372-0.341 2.73-0.744 4.032-0.957 3.12-0.805 6.076-0.796 6.216 0.736 8.002 12.245 9.404 19.075 4.896 0.748-0.493 1.36-1.057 1.81-1.677 2.521-3.477 1.038-8.199-0.066-10.708zM5.135 23.725c0.014 0.258-0.185 0.479-0.445 0.493h-0.028c-0.251 0-0.46-0.193-0.474-0.442-0.043-0.686-0.033-1.405 0.019-2.185 0.019-0.258 0.246-0.451 0.507-0.437 0.261 0.019 0.46 0.244 0.441 0.503-0.052 0.742-0.062 1.419-0.019 2.068zM5.367 19.562c-0.028 0.24-0.232 0.414-0.469 0.414-0.019 0-0.038 0-0.062-0.005-0.256-0.033-0.441-0.263-0.412-0.521l0.227-1.814c0.033-0.254 0.265-0.437 0.531-0.409 0.261 0.033 0.445 0.268 0.412 0.526l-0.227 1.809z"></path>
<path fill="#ff6b09" style="fill: var(--color1, #ff6b09)" d="M19.436 6.428c-0.259-0.040-0.436-0.279-0.396-0.535 0.030-0.191 0.201-1.168 0.665-1.66 0.179-0.189 0.478-0.199 0.67-0.021s0.2 0.475 0.021 0.664c-0.196 0.208-0.364 0.804-0.42 1.16-0.040 0.254-0.278 0.431-0.541 0.392z"></path>
<path fill="#ff6b09" style="fill: var(--color1, #ff6b09)" d="M2.163 8.769c-0.091-0.349-0.316-0.926-0.532-1.114-0.197-0.171-0.217-0.468-0.044-0.663s0.471-0.215 0.669-0.044c0.511 0.444 0.777 1.4 0.826 1.587 0.065 0.251-0.088 0.507-0.341 0.572-0.259 0.065-0.513-0.091-0.577-0.338z"></path>
</symbol>
<symbol id="icon-Group" viewBox="0 0 44 32">
<path fill="#fff" style="fill: var(--color2, #fff)" d="M19.6 4.581h-13.64v1.020h13.64v-1.020z"></path>
<path fill="#fff" style="fill: var(--color2, #fff)" d="M19.6 8.384h-11.597v1.020h11.597v-1.020z"></path>
<path fill="#fff" style="fill: var(--color2, #fff)" d="M19.6 12.188h-13.64v1.020h13.64v-1.020z"></path>
<path fill="#fff" style="fill: var(--color2, #fff)" d="M19.6 15.992h-11.597v1.020h11.597v-1.020z"></path>
<path fill="#fff" style="fill: var(--color2, #fff)" d="M19.6 19.796h-13.64v1.020h13.64v-1.020z"></path>
<path fill="#fff" style="fill: var(--color2, #fff)" d="M19.6 23.6h-11.597v1.020h11.597v-1.020z"></path>
<path fill="#fff" style="fill: var(--color2, #fff)" d="M38.323 4.581h-13.64v1.020h13.64v-1.020z"></path>
<path fill="#fff" style="fill: var(--color2, #fff)" d="M36.281 8.384h-11.597v1.020h11.597v-1.020z"></path>
<path fill="#fff" style="fill: var(--color2, #fff)" d="M38.323 12.188h-13.64v1.020h13.64v-1.020z"></path>
<path fill="#fff" style="fill: var(--color2, #fff)" d="M36.281 15.992h-11.597v1.020h11.597v-1.020z"></path>
<path fill="#fff" style="fill: var(--color2, #fff)" d="M38.323 19.796h-13.64v1.020h13.64v-1.020z"></path>
<path fill="#fff" style="fill: var(--color2, #fff)" d="M36.281 23.6h-11.597v1.020h11.597v-1.020z"></path>
<path fill="#fff" style="fill: var(--color2, #fff)" d="M43.248 3.42h-1.872v-2.809c0-0.282-0.229-0.51-0.511-0.51h-15.265c-1.49 0-2.781 0.804-3.458 2.009-0.678-1.204-1.97-2.009-3.459-2.009h-15.265c-0.282 0-0.511 0.228-0.511 0.51v2.809h-1.872c-0.282 0-0.511 0.228-0.511 0.51v27.381c0 0.282 0.229 0.51 0.511 0.51 5.127 0 37.068 0 42.213 0 0.282 0 0.511-0.228 0.511-0.51v-27.381c0-0.282-0.229-0.51-0.511-0.51zM25.601 1.121h14.754c0 4.568 0 16.6 0 27.32h-15.843c-0.702 0-1.405 0.296-1.859 0.679v-25.061c0-1.628 1.305-2.938 2.948-2.938zM3.929 1.121h14.754c1.597 0 2.889 1.241 2.942 2.826 0.001 0.022 0.003 0.091 0.006 0.112v25.059c-0.453-0.382-1.148-0.677-1.852-0.677h-15.85c0-10.716 0-22.754 0-27.32zM1.546 4.44h1.362v24.511c0 0.282 0.229 0.51 0.511 0.51h16.361c0.778 0 1.531 0.51 1.771 1.34h-20.005v-26.36zM42.738 30.8h-20.004c0.242-0.834 0.987-1.34 1.778-1.34h16.354c0.282 0 0.511-0.228 0.511-0.51v-24.511h1.362v26.36z"></path>
</symbol>
<symbol id="icon-instagram-1" viewBox="0 0 32 32">
<path fill="#000" style="fill: var(--color3, #000)" d="M31.452 5.724c-0.291-2.729-2.447-4.885-5.176-5.176-6.844-0.73-13.709-0.73-20.553 0-2.729 0.291-4.885 2.447-5.176 5.176-0.73 6.844-0.73 13.709 0 20.553 0.291 2.729 2.447 4.885 5.176 5.176 6.844 0.73 13.709 0.73 20.553 0 2.729-0.291 4.884-2.447 5.176-5.176 0.73-6.844 0.73-13.708 0-20.553z"></path>
<path fill="#000" style="fill: var(--color3, #000)" d="M29.712 6.881c-0.258-2.422-2.171-4.334-4.593-4.593-6.073-0.648-12.165-0.648-18.238 0-2.422 0.259-4.334 2.171-4.593 4.593-0.648 6.073-0.648 12.165 0 18.238 0.259 2.422 2.171 4.335 4.593 4.593 6.073 0.648 12.165 0.648 18.238 0 2.422-0.258 4.335-2.171 4.593-4.593 0.648-6.073 0.648-12.164 0-18.238z"></path>
<path fill="#000" style="fill: var(--color3, #000)" d="M0.48 25.613c0.022 0.221 0.045 0.442 0.068 0.664 0.291 2.729 2.447 4.884 5.176 5.176 6.844 0.73 13.709 0.73 20.552 0 2.729-0.291 4.885-2.447 5.176-5.176 0.024-0.221 0.046-0.442 0.069-0.664h-31.041z"></path>
<path fill="#000" style="fill: var(--color3, #000)" d="M31.452 26.276c0.393-3.678 0.574-7.361 0.544-11.044l-7.314-7.314c-0.914-1.043-2.249-1.694-3.817-1.751-3.225-0.116-6.461-0.11-9.687 0-2.679 0.092-4.553 1.893-5.033 4.54-0.085 0.467-0.136 0.941-0.202 1.411v7.759c0.037 0.252 0.091 0.502 0.108 0.755 0.107 1.61 0.769 2.989 1.828 3.922l7.443 7.443c3.653 0.026 7.306-0.156 10.954-0.545 2.729-0.291 4.884-2.447 5.176-5.176z"></path>
<path fill="#000" style="fill: var(--color3, #000)" d="M31.452 26.277c-0.291 2.729-2.447 4.885-5.176 5.176-3.647 0.389-7.301 0.571-10.953 0.545l-7.432-7.432c0.862 0.754 1.985 1.213 3.288 1.262 3.225 0.121 6.461 0.118 9.686 0.002 2.917-0.105 5.028-2.264 5.119-5.181 0.097-3.097 0.097-6.202 0-9.3-0.041-1.346-0.514-2.53-1.297-3.426l7.31 7.31c0.029 3.682-0.152 7.366-0.545 11.044z"></path>
<path fill="#000" style="fill: var(--color3, #000)" d="M19.776 12.535c-0.937-1.020-2.282-1.66-3.776-1.66-2.831 0-5.125 2.295-5.125 5.125 0 1.494 0.64 2.839 1.66 3.776l11.859 11.859c0.628-0.055 1.255-0.116 1.883-0.182 2.729-0.291 4.885-2.447 5.176-5.176 0.067-0.627 0.128-1.255 0.182-1.883l-11.859-11.859z"></path>
<path fill="#000" style="fill: var(--color3, #000)" d="M31.938 19.447l-9.544-9.544c-0.223-0.292-0.573-0.482-0.969-0.482-0.673 0-1.22 0.546-1.22 1.219 0 0.396 0.19 0.747 0.482 0.969l11.080 11.080c0.075-1.081 0.132-2.162 0.171-3.243z"></path>
<path fill="#000" style="fill: var(--color3, #000)" d="M5.943 12.119c0.067-0.471 0.117-0.944 0.202-1.411 0.48-2.647 2.354-4.447 5.033-4.54 3.226-0.111 6.461-0.117 9.687-0 2.916 0.105 5.028 2.264 5.119 5.181 0.097 3.097 0.097 6.202 0 9.3-0.091 2.917-2.202 5.076-5.119 5.181-3.225 0.116-6.462 0.119-9.687-0.002-2.916-0.11-4.933-2.274-5.128-5.195-0.017-0.253-0.071-0.503-0.108-0.755 0-2.586 0-5.173 0-7.759zM16.003 24.101c1.476 0 2.954 0.044 4.428-0.010 2.311-0.086 3.733-1.465 3.787-3.774 0.067-2.877 0.067-5.758 0-8.636-0.054-2.309-1.477-3.72-3.787-3.769-2.932-0.062-5.868-0.062-8.8 0-2.293 0.048-3.719 1.431-3.781 3.714-0.079 2.914-0.079 5.832 0 8.746 0.062 2.283 1.488 3.634 3.781 3.719 1.456 0.054 2.915 0.010 4.372 0.010z"></path>
<path fill="#fff" style="fill: var(--color2, #fff)" d="M5.943 12.119c0.067-0.471 0.117-0.944 0.202-1.411 0.48-2.647 2.354-4.447 5.033-4.54 3.226-0.111 6.461-0.117 9.687-0 2.916 0.105 5.028 2.264 5.119 5.181 0.097 3.097 0.097 6.202 0 9.3-0.091 2.917-2.202 5.076-5.119 5.181-3.225 0.116-6.462 0.119-9.687-0.002-2.916-0.11-4.933-2.274-5.128-5.195-0.017-0.253-0.071-0.503-0.108-0.755 0-2.586 0-5.173 0-7.759zM16.003 24.101c1.476 0 2.954 0.044 4.428-0.010 2.311-0.086 3.733-1.465 3.787-3.774 0.067-2.877 0.067-5.758 0-8.636-0.054-2.309-1.477-3.72-3.787-3.769-2.932-0.062-5.868-0.062-8.8 0-2.293 0.048-3.719 1.431-3.781 3.714-0.079 2.914-0.079 5.832 0 8.746 0.062 2.283 1.488 3.634 3.781 3.719 1.456 0.054 2.915 0.010 4.372 0.010z"></path>
<path fill="#fff" style="fill: var(--color2, #fff)" d="M16 10.875c-2.831 0-5.125 2.295-5.125 5.125s2.295 5.126 5.125 5.126c2.831 0 5.126-2.295 5.126-5.126s-2.295-5.125-5.126-5.125zM16 19.361c-1.856 0-3.361-1.505-3.361-3.361s1.505-3.361 3.361-3.361c1.856 0 3.361 1.505 3.361 3.361s-1.505 3.361-3.361 3.361z"></path>
<path fill="#fff" style="fill: var(--color2, #fff)" d="M22.644 10.641c0 0.673-0.546 1.219-1.219 1.219s-1.22-0.546-1.22-1.219c0-0.674 0.546-1.219 1.22-1.219s1.219 0.546 1.219 1.219z"></path>
</symbol>
<symbol id="icon-insurance" viewBox="0 0 27 32">
<path fill="#ff6b09" style="fill: var(--color1, #ff6b09)" d="M0.529 13.797c0 0.348-0.529 0.348-0.529 0 0-7.403 6.004-13.407 13.407-13.407 7.406 0 13.407 6.004 13.407 13.407 0 0.348-0.525 0.348-0.525 0 0-5.004-8.223-5.007-8.223 0 0 0.348-0.541 0.348-0.541 0 0-4.991-8.235-4.991-8.235 0 0 0.348-0.541 0.348-0.541 0 0-4.982-8.219-5.017-8.219 0zM8.796 11.854c0.142-2.88 0.595-5.463 1.253-7.435 0.525-1.567 1.19-2.757 1.943-3.425-5.653 0.617-10.229 4.903-11.252 10.46 1.946-2.807 6.441-2.583 8.055 0.399zM17.483 11.724c-0.146-2.769-0.586-5.248-1.218-7.137-1.633-4.89-4.083-4.89-5.716 0-0.633 1.889-1.070 4.368-1.219 7.137 1.757-2.985 6.396-2.985 8.153 0zM26.073 11.455c-1.019-5.558-5.596-9.843-11.252-10.46 0.756 0.668 1.418 1.858 1.943 3.425 0.658 1.972 1.111 4.554 1.253 7.435 1.624-2.997 6.131-3.175 8.055-0.399z"></path>
<path fill="#ff6b09" style="fill: var(--color1, #ff6b09)" d="M11.647 19.932v-2.722c-0.491 0.326-0.877 0.829-0.877 1.444 0 0.598 0.393 0.994 0.877 1.279zM12.176 20.777c-0.94-0.431-1.931-0.934-1.931-2.124 0-1.228 0.934-1.842 1.931-2.301v4.426z"></path>
<path fill="#ff6b09" style="fill: var(--color1, #ff6b09)" d="M15.167 24.039v2.754c0.497-0.329 0.886-0.835 0.886-1.45 0-0.605-0.399-1.013-0.886-1.304zM14.641 23.191c0.943 0.437 1.94 0.956 1.94 2.152 0 1.231-0.94 1.845-1.94 2.301v-4.453z"></path>
<path fill="#ff6b09" style="fill: var(--color1, #ff6b09)" d="M15.167 14.111c2.165 0.5 4.39 2.121 4.39 4.542 0 2.073-3.504 1.997-3.504 0 0-0.617-0.389-1.124-0.886-1.45v3.874c2.003 0.655 4.396 1.829 4.396 4.267 0 2.424-2.225 4.042-4.396 4.539-0.010 2.307-3.513 2.304-3.519-0.003-1.234-0.285-2.307-0.861-3.083-1.624-0.813-0.804-1.295-1.814-1.295-2.912 0-2.042 3.5-2.042 3.5 0 0 0.611 0.386 1.114 0.877 1.44v-3.871c-1.988-0.643-4.393-1.852-4.393-4.267 0-2.424 2.225-4.042 4.393-4.539 0.009-2.307 3.513-2.304 3.519 0.003zM12.176 14.117v0.421c-2.060 0.408-4.396 1.728-4.396 4.108 0 2.288 2.564 3.314 4.396 3.88v5.115c-0.991-0.453-1.931-1.064-1.931-2.298 0-1.348-2.45-1.348-2.45 0 0 0.953 0.424 1.833 1.139 2.535 0.908 0.899 2.010 1.326 3.241 1.57v0.424c0 1.624 2.466 1.624 2.466 0v-0.421c2.067-0.411 4.393-1.731 4.393-4.108 0-2.31-2.557-3.304-4.393-3.884v-5.112c0.994 0.453 1.94 1.063 1.94 2.304 0 1.313 2.447 1.367 2.447 0 0-2.377-2.323-3.7-4.387-4.111v-0.424c0-1.624-2.466-1.624-2.466 0z"></path>
</symbol>
<symbol id="icon-mobile-learning" viewBox="0 0 32 32">
<path fill="#ff6b09" style="fill: var(--color1, #ff6b09)" d="M29.457 0.256h-15.371c-1.001 0-1.815 0.814-1.815 1.815v6.363l-11.419 4.793c-0.129 0.054-0.217 0.176-0.227 0.316s0.059 0.274 0.18 0.346l1.456 0.872v9.288c-0.745 0.17-1.304 0.836-1.304 1.634v0.895c0 0.205 0.167 0.372 0.372 0.372h2.608c0.205 0 0.372-0.167 0.372-0.372v-0.895c0-0.796-0.559-1.462-1.304-1.633v-8.844l1.151 0.689c-0.035 0.266-0.004-0.463-0.016 4.324 0 1.574 4.031 2.417 8.132 2.465v7.249c0 0.374 0.115 0.723 0.311 1.012 0.326 0.482 0.878 0.8 1.503 0.8h15.371c1 0 1.813-0.814 1.813-1.813 0 0.050-0.002-1.535 0-27.86 0-0.987-0.816-1.815-1.812-1.815zM3.565 25.682v0.523h-1.864v-0.523c0-0.515 0.417-0.935 0.93-0.935 0.515 0 0.934 0.419 0.934 0.935zM29.457 30.998h-15.371c-0.369 0-0.695-0.187-0.887-0.47-0.115-0.171-0.183-0.376-0.183-0.597v-2.513h17.508v2.514c0 0.582-0.485 1.066-1.066 1.066zM30.523 26.675h-17.508v-3.989c2.002-0.023 8.137-0.464 8.137-2.467-0.002-3.007 0.005-4.227-0.009-4.33l3.339-2c0.12-0.072 0.19-0.206 0.18-0.346s-0.098-0.262-0.227-0.316l-11.419-4.793v-3.106h17.508v21.347zM12.643 17.75c-2.063 0-6.034 0.266-7.76 1.393 0.011-3.446-0.12-3.222 0.305-3.514 1.072-0.789 4.137-1.34 7.455-1.34 1.447 0 7.765 0.398 7.765 1.735v3.119c-1.742-1.137-5.693-1.394-7.765-1.394zM13.015 2.071c0-0.59 0.48-1.069 1.069-1.069h15.371c0.59 0 1.067 0.486 1.067 1.069v2.513h-17.508v-2.513zM12.643 9.084l10.826 4.544-2.683 1.605c-1.426-1.414-6.144-1.689-8.143-1.689-2.002 0-6.72 0.275-8.143 1.689l-2.683-1.606 10.827-4.544zM4.883 20.219c0-0.602 2.665-1.725 7.76-1.725 5.098 0 7.765 1.123 7.765 1.725s-2.667 1.726-7.765 1.726c-5.095 0-7.76-1.123-7.76-1.726z"></path>
<path fill="#ff6b09" style="fill: var(--color1, #ff6b09)" d="M21.77 27.979c-0.678 0-1.23 0.551-1.23 1.23s0.552 1.23 1.23 1.23c0.678 0 1.23-0.552 1.23-1.23s-0.552-1.23-1.23-1.23zM21.77 29.696c-0.268 0-0.486-0.218-0.486-0.487s0.218-0.486 0.486-0.486c0.268 0 0.486 0.218 0.486 0.486s-0.218 0.487-0.486 0.487z"></path>
<path fill="#ff6b09" style="fill: var(--color1, #ff6b09)" d="M23.189 2.421h-2.837v0.744h2.837v-0.744z"></path>
</symbol>
<symbol id="icon-psychological" viewBox="0 0 32 32">
<path fill="#ff6b09" style="fill: var(--color1, #ff6b09)" d="M1.952 12.894v2.771c0 0.149 0.068 0.289 0.185 0.381 1.896 1.49 4.274 2.311 6.698 2.311 0.725 0 1.451-0.076 2.161-0.219 1.513 0.668 3.123 1.010 4.79 1.010 1.672 0 3.283-0.342 4.791-1.010 3.028 0.611 6.254-0.045 8.858-2.092 0.117-0.092 0.185-0.233 0.185-0.381v-2.771c0-0.407-0.202-0.777-0.563-1.005l-3.788-2.129c0.829-1.050 1.446-2.546 1.553-3.829 0.314-2.208-1.487-4.546-4.080-4.546-1.090 0-2.127 0.448-2.888 1.2-0.026 0.026-0.056 0.048-0.082 0.075-0.023 0.024-0.042 0.053-0.065 0.078-0.015 0.017-0.028 0.035-0.043 0.052-0.741-1.35-2.166-2.184-3.844-2.184-0.163 0-0.323 0.011-0.482 0.027-0.010-0.001-0.018-0.005-0.028-0.005-0.090 0-0.281 0.024-0.383 0.053-0.015 0.004-0.026 0.015-0.040 0.021-1.253 0.253-2.315 1.012-2.951 2.11-0.765-0.891-1.89-1.426-3.114-1.426-3.828 0-5.527 4.513-2.505 8.396l-3.823 2.12c-0.339 0.215-0.542 0.586-0.542 0.992zM20.568 17.072c-0.082 0.040-0.163 0.083-0.246 0.12l-0 0c-0.001 0-0.001 0.001-0.002 0.001-1.423 0.653-2.948 0.984-4.533 0.984-1.581 0-3.106-0.331-4.535-0.985-0.695-0.316-1.368-0.718-2.003-1.195v-2.808c0-0.096 0.046-0.181 0.1-0.216l4.449-2.47c0.554 0.47 1.261 0.814 1.993 0.814 0.706 0 1.468-0.349 2.011-0.825l4.395 2.466c0.081 0.052 0.128 0.136 0.128 0.232v2.808c-0.56 0.42-1.149 0.778-1.757 1.075zM28.559 12.721c0.057 0.036 0.090 0.099 0.090 0.172v2.532c-1.928 1.446-4.249 2.102-6.599 1.937 0.362-0.226 0.756-0.505 1.061-0.744 0.117-0.092 0.186-0.233 0.186-0.382v-3.047c0-0.426-0.214-0.817-0.598-1.063l-2.335-1.311 0.568-0.314c0.689 0.561 1.28 0.728 1.811 0.728 0.649 0 1.332-0.318 1.84-0.743l3.977 2.235zM22.742 2.355c1.352 0 2.54 0.883 2.96 2.096-0.816-0.097-1.614-0.499-2.191-1.117-0.104-0.112-0.253-0.17-0.407-0.152-0.152 0.016-0.287 0.103-0.365 0.234-0.554 0.927-1.462 1.546-2.496 1.722 0-0.001-0-0.002-0-0.003 0.005-0.211-0.008-0.425-0.032-0.639-0.002-0.022-0.005-0.043-0.007-0.065-0.031-0.243-0.105-0.547-0.119-0.596 0.552-0.883 1.576-1.48 2.658-1.48zM20.137 6.128c1.227-0.134 2.337-0.75 3.1-1.724 0.751 0.616 1.705 0.989 2.647 1.034-0.007 1.753-1.441 4.821-3.141 4.821-1.31 0-2.428-1.871-2.846-3.169 0.106-0.334 0.183-0.655 0.24-0.962zM20.235 9.777l-0.868 0.48-0.876-0.492c0.325-0.404 0.623-0.874 0.878-1.383 0.245 0.515 0.539 0.988 0.866 1.395zM18.926 6.931c-0.468 1.396-1.67 3.415-3.134 3.415-1.707 0-3.16-2.803-3.437-4.595 0.074-0.018 2.38 0.124 3.967-1.958 0.806 0.673 1.892 1.119 2.949 1.163 0.013 0.633-0.141 1.376-0.345 1.975zM15.82 1.576c2.723 0 3.241 2.341 3.284 2.39-0.987-0.1-1.888-0.583-2.511-1.248-0.104-0.112-0.256-0.168-0.407-0.151s-0.287 0.104-0.366 0.236c-0.539 0.912-1.385 1.554-2.365 1.828-0.378 0.106-0.786 0.154-1.143 0.15 0.133-1.783 1.564-3.204 3.507-3.204zM12.207 8.373c0.252 0.504 0.551 0.985 0.894 1.407l-0.858 0.476-0.888-0.499c0.337-0.429 0.623-0.909 0.852-1.385zM8.822 2.355c1.102 0 2.111 0.558 2.674 1.481-0.028 0.098-0.104 0.487-0.114 0.536-0.676-0.162-1.297-0.521-1.784-1.040-0.105-0.111-0.253-0.167-0.408-0.151-0.152 0.017-0.287 0.104-0.365 0.235-0.65 1.095-1.842 1.776-3.112 1.776 0.155-1.592 1.487-2.838 3.109-2.838zM5.756 6.161c1.396-0.014 2.714-0.671 3.568-1.757 0.584 0.48 1.277 0.796 2.014 0.94 0.029 0.563 0.175 1.246 0.343 1.75-0.268 0.822-0.783 1.801-1.421 2.452-0.004 0.004-0.009 0.006-0.013 0.010-0.399 0.42-0.968 0.703-1.415 0.703-1.561 0-2.783-2.454-3.076-4.098zM2.924 12.894c0-0.073 0.033-0.136 0.066-0.158l4.032-2.235c0.242 0.201 0.297 0.224 0.346 0.26l-0 0c0.474 0.315 0.909 0.472 1.503 0.472 0.632 0 1.207-0.267 1.713-0.679 0.029-0.022 0.059-0.044 0.086-0.067l0.575 0.323-2.396 1.331c-0.358 0.231-0.572 0.623-0.572 1.048v3.047c0 0.149 0.068 0.29 0.186 0.381 0.31 0.243 0.713 0.527 1.061 0.745-2.385 0.163-4.705-0.517-6.6-1.938v-2.532z"></path>
<path fill="#ff6b09" style="fill: var(--color1, #ff6b09)" d="M30.621 20.94c-0.598-0.375-1.333-0.414-1.966-0.108l-5.995 2.893c-0.021-1.121-0.937-2.027-2.064-2.027l-3.437 0.001c-1.695-1.472-3.861-2.373-5.83-2.42-1.942-0.046-3.686-0.059-4.499-0.063v-0.98h-6.829v11.269h6.829v-1.349c1.873 1.073 6.797 3.762 9.134 3.762 0.053 0 0.105-0.001 0.155-0.004 4.11-0.23 13.803-7.044 14.443-7.496 0.625-0.363 1.013-1.033 1.013-1.757 0-0.704-0.356-1.347-0.953-1.721zM5.858 28.535h-4.886v-9.329h4.886v9.329zM30.061 23.585c-0.015 0.008-0.029 0.017-0.043 0.027-0.1 0.071-10.071 7.115-13.953 7.333-0.038 0.002-0.077 0.003-0.118 0.003-2.050 0-7.047-2.693-9.117-3.915v-6.846c0.81 0.004 2.544 0.017 4.476 0.062 1.799 0.043 3.797 0.901 5.344 2.295l0.139 0.125 3.808-0.001c0.604 0 1.096 0.491 1.096 1.095s-0.491 1.095-1.096 1.095h-6.996v0.97h6.996c0.671 0 1.261-0.326 1.639-0.821l6.841-3.301c0.336-0.163 0.711-0.143 1.027 0.056s0.498 0.526 0.498 0.898c0 0.383-0.207 0.737-0.541 0.925z"></path>
<path fill="#ff6b09" style="fill: var(--color1, #ff6b09)" d="M16.273 12.503h-0.972v0.9h0.972v-0.9z"></path>
<path fill="#ff6b09" style="fill: var(--color1, #ff6b09)" d="M16.273 14.297h-0.972v0.9h0.972v-0.9z"></path>
<path fill="#ff6b09" style="fill: var(--color1, #ff6b09)" d="M16.273 16.091h-0.972v0.9h0.972v-0.9z"></path>
</symbol>
<symbol id="icon-ptaszek" viewBox="0 0 41 32">
<path fill="#ff6b09" style="fill: var(--color1, #ff6b09)" d="M35.533 1.82c-1.435 0.642-2.811 1.426-4.124 2.301-2.641 1.738-5.056 3.807-7.32 6.013-2.264 2.212-4.371 4.579-6.364 7.041-0.498 0.616-2.73 3.356-2.73 3.356l-9.28-13.906-3.503 9.711 12.55 14.967c1.219-2.467 2.392-4.903 3.542-7.019 0.286-0.538 0.585-1.045 0.871-1.559 0 0 1.473-2.589 1.86-3.241 1.549-2.608 3.223-5.149 5.066-7.563 1.846-2.409 3.852-4.709 6.126-6.731 1.132-1.018 2.336-1.959 3.627-2.777 1.288-0.82 2.657-1.539 4.12-2.055-1.523 0.3-3.009 0.82-4.441 1.464z"></path>
</symbol>
<symbol id="icon-spoken-english" viewBox="0 0 37 32">
<path fill="#ff6b09" style="fill: var(--color1, #ff6b09)" d="M2.954 29.451h11.853c0.601 1.258 1.858 2.070 3.276 2.070h0.749c1.42 0 2.676-0.812 3.277-2.070h11.86c1.222 0 2.215-1.003 2.215-2.237v-21.434c0-1.233-0.994-2.237-2.215-2.237h-1.196v-0.999c0-0.822-0.663-1.491-1.477-1.491h-25.675c-0.814 0-1.477 0.669-1.477 1.491v0.999h-1.189c-1.222 0-2.215 1.003-2.215 2.237v21.434c0 1.233 0.994 2.237 2.215 2.237zM31.294 24.852h-12.094v-17.325c2.795 0.369 4.963 2.784 4.963 5.705v0.672l-0.175-0.039c-0.19-0.041-0.39-0.007-0.556 0.1s-0.282 0.275-0.324 0.468l-1.175 5.401c-0.087 0.401 0.164 0.799 0.562 0.887l2.541 0.565c0.131 0.028 0.265 0.043 0.398 0.043 0.893 0 1.654-0.617 1.849-1.502l0.68-3.123c0.224-1.026-0.42-2.046-1.439-2.274l-0.884-0.197v-1.001c0-3.745-2.827-6.836-6.44-7.212v-3.475h12.096l-0.001 22.306zM24.391 15.482l1.814 0.403c0.226 0.051 0.365 0.269 0.315 0.497l-0.68 3.123c-0.049 0.226-0.296 0.366-0.492 0.324l-1.816-0.404 0.859-3.943zM5.62 2.545h12.103v3.474c-3.616 0.373-6.447 3.465-6.447 7.213v1.001l-0.886 0.197c-0.493 0.111-0.914 0.407-1.185 0.835-0.272 0.429-0.361 0.94-0.252 1.437l0.679 3.12c0.184 0.873 0.962 1.507 1.85 1.507 0.133 0 0.267-0.015 0.403-0.044l2.53-0.564c0.397-0.089 0.649-0.486 0.562-0.887l-1.175-5.401c-0.042-0.193-0.159-0.362-0.324-0.468s-0.366-0.141-0.557-0.1l-0.169 0.038v-0.671c0-2.924 2.171-5.34 4.97-5.706v17.326h-12.103v-22.306zM12.518 15.483l0.86 3.943-1.806 0.403c-0.222 0.051-0.449-0.098-0.496-0.321l-0.68-3.127c-0.024-0.109-0.005-0.22 0.053-0.312 0.059-0.094 0.152-0.158 0.26-0.183l1.809-0.403zM2.215 5.781c0-0.411 0.331-0.746 0.738-0.746h1.189v19.816c0 0.822 0.663 1.491 1.477 1.491h25.675c0.814 0 1.477-0.669 1.477-1.491v-19.816h1.196c0.407 0 0.738 0.335 0.738 0.746v21.434c0 0.411-0.331 0.746-0.738 0.746h-12.362c-0.325 0-0.611 0.214-0.706 0.527-0.28 0.923-1.112 1.543-2.069 1.543h-0.749c-0.953 0-1.784-0.618-2.072-1.552-0.098-0.309-0.382-0.518-0.703-0.518h-12.354c-0.407 0-0.738-0.335-0.738-0.746v-21.434z"></path>
</symbol>
<symbol id="icon-student" viewBox="0 0 27 32">
<path fill="#ff6b09" style="fill: var(--color1, #ff6b09)" d="M-0.1 31.374c3.357 0 22.778 0 26.131 0 0.129-2.98-0.084-7.924-1.916-10.278l-0.066-0.085-4.004-2.010c0.087-0.293 0.13-0.562 0.147-0.759 0.020-0.237-0.013-0.46-0.097-0.661-0.661-1.581-2.058-2.412-2.827-2.767 0.234-0.472 0.385-0.979 0.458-1.497 0.435-0.123 0.785-0.467 0.9-0.928l0.467-1.899c0.083-0.335 0.031-0.682-0.147-0.978-0.077-0.127-0.176-0.235-0.287-0.326 1.318-2.993-0.889-5.815-1.009-5.963-2.39-2.584-5.409-2.101-5.569-2.072-4.357 0.912-6.039 4.252-5.089 8.168-0.281 0.312-0.399 0.746-0.295 1.171l0.47 1.901c0.114 0.457 0.461 0.8 0.893 0.925 0.133 0.948 0.535 1.806 1.124 2.497v1.505c-6.253 3.202-2.291 1.159-7.302 3.694-0.010 0.047-2.351 2.536-2.003 9.911l0.021 0.451zM25.123 30.428h-4.301v-1.807l2.845-6.512c1.425 2.365 1.478 6.881 1.456 8.318zM19.254 18.162c-0.166 1.907-1.211 1.33-1.857 2.799-0.508-0.558-0.66-1.228-0.524-1.944 0.246-1.316-0.556-1.706-0.358-3.089l0.030-0.032v-0.004c0.017-0.019 0.175-0.208 0.221-0.267 1.702 0.742 2.521 2.121 2.488 2.537zM10.125 16.664c0.79 0.548 1.743 0.872 2.769 0.872 0.966 0 1.883-0.281 2.67-0.799 0.109 1.087 0.534 1.304 0.383 2.104-0.028 0.148-0.044 0.295-0.053 0.439l-2.929 3.301-3.744-4.221 0.904-0.472v-1.224zM8.948 12.624v-1.83c0-0.674 0-3.348 0-3.216 0.456-0.843 1.077-1.454 1.85-1.821 2.068 1.17 4.449 2.917 6.046 4.675-0.002 2.239 0.006 2.245-0.009 2.428l-0.001 0.012c-0.125 2.033-1.796 3.718-3.939 3.718-2.084 0-3.814-1.636-3.939-3.738-0.006-0.075-0.008-0.151-0.008-0.228zM8.365 18.816l4.601 5.187 3.089-3.481c0.071 0.203 0.17 0.395 0.283 0.581l-3.372 4.217-5.028-6.289 0.427-0.214zM17.785 11.863v-1.461c0.041-0.047 0.393-0.45 0.351-0.403 0.019 0.74 0.099-0.133-0.351 1.864zM12.255 2.082c0.187 0.012 2.698-0.382 4.682 1.76 0.078 0.098 1.693 2.179 1.045 4.456-0.222-1.013-0.609-2.311-1.221-2.931l-0.669 0.666c0.604 0.612 1.001 2.475 1.152 3.441-2.771-2.9-6.346-4.735-6.395-4.766-0.179 0.112-1.692 0.399-2.791 2.534l-0.052 0.102v1.568c-0.047 0.001-0.186 0.002-0.138 0.001-0.698-3.37 0.639-6.047 4.388-6.833zM7.768 9.888l0.238 0.963v1.012l-0.395-1.599c-0.058-0.238 0.119-0.329 0.157-0.376zM7.075 19.463l5.89 7.367 3.985-4.984c0.434 0.388 0.642 0.443 1.561 0.916l-0.31-1.052c-0.079-0.267 0.233-0.695 0.421-0.892 0.42-0.228 0.77-0.553 1.032-0.954l3.252 1.633-3.026 6.927v2.005h-13.83v-2.005l-3.027-6.926 4.052-2.034zM2.264 22.112l2.845 6.51v1.806h-4.301c-0.022-1.437 0.032-5.95 1.456-8.316z"></path>
</symbol>
<symbol id="icon-vk" viewBox="0 0 32 32">
<path fill="#436eab" style="fill: var(--color4, #436eab)" d="M27.541 18.46c1.061 1.036 2.182 2.011 3.134 3.152 0.421 0.507 0.819 1.030 1.123 1.619 0.432 0.836 0.041 1.757-0.709 1.807l-4.662-0.002c-1.202 0.1-2.162-0.384-2.968-1.206-0.645-0.657-1.243-1.357-1.864-2.037-0.255-0.278-0.521-0.539-0.839-0.746-0.636-0.413-1.189-0.287-1.552 0.377-0.37 0.675-0.454 1.423-0.491 2.175-0.050 1.098-0.382 1.386-1.484 1.437-2.357 0.111-4.593-0.245-6.671-1.434-1.832-1.048-3.252-2.528-4.489-4.203-2.407-3.261-4.25-6.845-5.907-10.53-0.373-0.83-0.1-1.276 0.816-1.291 1.521-0.030 3.041-0.027 4.564-0.002 0.618 0.009 1.027 0.364 1.266 0.947 0.823 2.023 1.83 3.948 3.093 5.732 0.337 0.475 0.68 0.95 1.168 1.284 0.541 0.37 0.952 0.248 1.207-0.355 0.161-0.382 0.232-0.793 0.268-1.202 0.121-1.407 0.136-2.812-0.075-4.214-0.13-0.875-0.623-1.442-1.496-1.607-0.446-0.084-0.379-0.25-0.164-0.505 0.375-0.439 0.727-0.712 1.43-0.712h5.269c0.829 0.164 1.014 0.536 1.127 1.371l0.004 5.852c-0.009 0.323 0.161 1.282 0.743 1.496 0.466 0.152 0.773-0.22 1.052-0.516 1.261-1.339 2.162-2.921 2.966-4.559 0.357-0.72 0.664-1.469 0.961-2.216 0.22-0.555 0.566-0.828 1.191-0.816l5.071 0.005c0.15 0 0.302 0.002 0.448 0.027 0.855 0.146 1.089 0.513 0.825 1.348-0.416 1.309-1.225 2.4-2.016 3.496-0.846 1.17-1.75 2.3-2.589 3.477-0.77 1.075-0.709 1.617 0.248 2.55z"></path>
</symbol>
</defs>
</svg>
